# xmcd
#
# Track frame offsets:
#	150
#	14730
#	35442
#	48677
#	74044
#	94235
#	115022
#	136670
#	151260
#	162758
#	181205
#	206023
#	220472
#
# Disc length: 3112 seconds
#
# Revision: 0
# Processed by: cddbd v1.4PL0 Copyright (c) Steve Scherf et al.
# Submitted via: EasyCDDAExtractor 5.0.5.1
#
DISCID=bb0c260d
DTITLE=Various Artist - Is the Season- Bluegrass Christmas
DYEAR=2002
DGENRE=Country
TTITLE0=Joy to the World
TTITLE1=Hark the Herald Angels Sing
TTITLE2=Go Tell It On The Mountain
TTITLE3=What Child Is This?
TTITLE4=Carol of the Bells/Kitten up Christmas Tree
TTITLE5=Angels We Have Heard On High
TTITLE6=Amazing Grace
TTITLE7=All Through The Night
TTITLE8=Christmas Eve is Comming Anna
TTITLE9=Deck The Halls
TTITLE10=I Wonder as I Wander
TTITLE11=What Child Is This (Instrumental)
TTITLE12=We Wish You A Merry Christmas
EXTD=
EXTT0=
EXTT1=
EXTT2=
EXTT3=
EXTT4=
EXTT5=
EXTT6=
EXTT7=
EXTT8=
EXTT9=
EXTT10=
EXTT11=
EXTT12=
PLAYORDER=
